<svg width="150" height="34" viewBox="0 0 150 34" fill="none" xmlns="http://www.w3.org/2000/svg">
<path d="M22.5147 33.115C17.4335 33.1899 12.1027 33.6851 7.08401 32.5698C2.70613 31.5586 0.525536 28.0297 0.192619 23.7392C0.0677731 17.8923 -0.523156 11.7542 1.27459 6.10704C3.72988 -0.576265 9.61417 0.272676 15.4818 0.0146638C18.3782 0.143668 21.337 -0.289123 24.1918 0.422489C27.6167 0.942664 30.8085 3.38546 31.8405 6.74791C32.394 8.12537 32.394 9.64429 32.5105 11.0967C32.6687 14.5548 32.7394 18.013 32.6562 21.4712C32.265 28.45 30.2259 32.9735 22.5147 33.115ZM15.9729 11.9497C13.1223 12.0163 10.3591 11.2381 8.14101 9.40291C7.5293 8.73708 6.32663 8.51237 6.46809 9.765C6.79272 11.1466 7.03821 12.5199 7.45021 13.8848C3.95042 14.1304 8.29501 17.6135 9.43522 18.3709C6.16017 19.4654 10.2301 21.0134 11.3745 21.9248C10.6046 22.4741 9.74734 22.9069 8.85263 23.2232C8.13267 23.4104 6.55551 23.76 7.89134 24.5632C10.9167 25.8948 14.3915 25.4495 17.4793 24.559C22.9059 23.0858 25.461 18.0921 25.5734 12.7695C25.3778 11.1549 28.3907 10.5432 27.2213 9.74C26.7303 9.63596 26.2101 9.91479 25.7274 10.0063C25.9646 9.48616 26.2143 8.97846 26.6387 8.57062C26.8093 8.43746 26.7677 8.22525 26.5888 8.08791C26.1685 7.80908 24.8535 8.812 24.325 8.97012C21.4993 5.86983 17.1506 7.99221 16.3016 11.6959C16.2475 11.879 16.1768 11.9622 15.9729 11.9497Z" fill="black"/>
<path d="M47.907 12.6491V15.3823H40.9921V12.6491H47.907ZM42.3313 10.1346H46.1031V19.7691C46.1031 19.9148 46.1281 20.0378 46.1783 20.138C46.2284 20.2337 46.3058 20.3066 46.4106 20.3567C46.5153 20.4022 46.6497 20.425 46.8137 20.425C46.9276 20.425 47.0597 20.4114 47.21 20.384C47.3649 20.3567 47.4788 20.3339 47.5517 20.3157L48.0983 22.9669C47.9298 23.017 47.6883 23.0785 47.374 23.1514C47.0643 23.2242 46.6953 23.2721 46.2671 23.2949C45.4016 23.3404 44.675 23.2516 44.0874 23.0284C43.4997 22.8006 43.0579 22.443 42.7618 21.9556C42.4657 21.4682 42.3222 20.8578 42.3313 20.1244V10.1346ZM51.3047 23.1445L48.6808 12.6491H52.4526L53.6552 19.0448H53.7372L55.0765 12.6491H58.7389L60.1328 18.9901H60.2148L61.3628 12.6491H65.1345L62.5107 23.1445H58.4383L56.9623 17.5142H56.853L55.3771 23.1445H51.3047ZM71.1236 23.3359C70.003 23.3359 69.0373 23.1218 68.2264 22.6936C67.4202 22.2608 66.7984 21.6413 66.361 20.835C65.9283 20.0242 65.7119 19.0539 65.7119 17.9242C65.7119 16.84 65.9306 15.8925 66.3679 15.0817C66.8052 14.2708 67.4224 13.6399 68.2196 13.1889C69.0168 12.738 69.9575 12.5125 71.0416 12.5125C71.8342 12.5125 72.5517 12.6355 73.194 12.8815C73.8363 13.1274 74.3852 13.485 74.8407 13.9542C75.2963 14.4189 75.647 14.9837 75.893 15.6488C76.139 16.3139 76.262 17.0632 76.262 17.8968V18.7715H66.8872V16.6942H72.7908C72.7863 16.3936 72.7088 16.1294 72.5585 15.9016C72.4128 15.6693 72.2146 15.4894 71.9641 15.3618C71.7181 15.2297 71.4379 15.1637 71.1236 15.1637C70.8184 15.1637 70.5382 15.2297 70.2832 15.3618C70.0281 15.4894 69.8231 15.667 69.6682 15.8948C69.5179 16.1225 69.4381 16.389 69.429 16.6942V18.9354C69.429 19.2725 69.4996 19.5732 69.6409 19.8374C69.7821 20.1016 69.9848 20.3089 70.249 20.4592C70.5132 20.6095 70.8321 20.6847 71.2056 20.6847C71.4653 20.6847 71.7021 20.6482 71.9162 20.5753C72.1349 20.5025 72.3216 20.3977 72.4765 20.261C72.6314 20.1198 72.7453 19.9513 72.8182 19.7554H76.262C76.1435 20.4842 75.8634 21.1174 75.4215 21.655C74.9797 22.1879 74.3943 22.6025 73.6655 22.8985C72.9412 23.1901 72.0939 23.3359 71.1236 23.3359ZM82.8301 23.3359C81.7095 23.3359 80.7438 23.1218 79.933 22.6936C79.1267 22.2608 78.5049 21.6413 78.0676 20.835C77.6348 20.0242 77.4184 19.0539 77.4184 17.9242C77.4184 16.84 77.6371 15.8925 78.0744 15.0817C78.5117 14.2708 79.129 13.6399 79.9261 13.1889C80.7233 12.738 81.664 12.5125 82.7481 12.5125C83.5408 12.5125 84.2582 12.6355 84.9005 12.8815C85.5428 13.1274 86.0917 13.485 86.5473 13.9542C87.0028 14.4189 87.3535 14.9837 87.5995 15.6488C87.8455 16.3139 87.9685 17.0632 87.9685 17.8968V18.7715H78.5937V16.6942H84.4974C84.4928 16.3936 84.4154 16.1294 84.2651 15.9016C84.1193 15.6693 83.9211 15.4894 83.6706 15.3618C83.4246 15.2297 83.1445 15.1637 82.8301 15.1637C82.5249 15.1637 82.2448 15.2297 81.9897 15.3618C81.7346 15.4894 81.5296 15.667 81.3747 15.8948C81.2244 16.1225 81.1447 16.389 81.1356 16.6942V18.9354C81.1356 19.2725 81.2062 19.5732 81.3474 19.8374C81.4886 20.1016 81.6913 20.3089 81.9555 20.4592C82.2197 20.6095 82.5386 20.6847 82.9121 20.6847C83.1718 20.6847 83.4087 20.6482 83.6228 20.5753C83.8414 20.5025 84.0282 20.3977 84.1831 20.261C84.3379 20.1198 84.4518 19.9513 84.5247 19.7554H87.9685C87.8501 20.4842 87.5699 21.1174 87.1281 21.655C86.6862 22.1879 86.1008 22.6025 85.372 22.8985C84.6477 23.1901 83.8004 23.3359 82.8301 23.3359ZM95.7666 12.6491V15.3823H88.8517V12.6491H95.7666ZM90.1909 10.1346H93.9627V19.7691C93.9627 19.9148 93.9878 20.0378 94.0379 20.138C94.088 20.2337 94.1654 20.3066 94.2702 20.3567C94.375 20.4022 94.5093 20.425 94.6733 20.425C94.7872 20.425 94.9193 20.4114 95.0696 20.384C95.2245 20.3567 95.3384 20.3339 95.4113 20.3157L95.9579 22.9669C95.7894 23.017 95.5479 23.0785 95.2336 23.1514C94.9239 23.2242 94.5549 23.2721 94.1267 23.2949C93.2612 23.3404 92.5346 23.2516 91.947 23.0284C91.3594 22.8006 90.9175 22.443 90.6214 21.9556C90.3253 21.4682 90.1818 20.8578 90.1909 20.1244V10.1346ZM103.592 12.6491V15.3823H96.5678V12.6491H103.592ZM97.907 23.1445V12.3485C97.907 11.483 98.0619 10.7655 98.3717 10.1961C98.6814 9.6267 99.1187 9.20078 99.6836 8.91835C100.248 8.63592 100.914 8.49471 101.679 8.49471C102.157 8.49471 102.622 8.53115 103.073 8.60404C103.528 8.67692 103.865 8.7407 104.084 8.79536L103.537 11.5012C103.401 11.4602 103.241 11.4283 103.059 11.4055C102.877 11.3782 102.717 11.3645 102.581 11.3645C102.225 11.3645 101.986 11.4397 101.863 11.59C101.74 11.7404 101.679 11.9385 101.679 12.1845V23.1445H97.907ZM109.784 23.3359C108.646 23.3359 107.671 23.1104 106.86 22.6594C106.049 22.2039 105.427 21.5707 104.994 20.7598C104.562 19.9444 104.345 18.9992 104.345 17.9242C104.345 16.8491 104.562 15.9062 104.994 15.0953C105.427 14.2799 106.049 13.6467 106.86 13.1958C107.671 12.7402 108.646 12.5125 109.784 12.5125C110.923 12.5125 111.898 12.7402 112.709 13.1958C113.52 13.6467 114.142 14.2799 114.574 15.0953C115.007 15.9062 115.223 16.8491 115.223 17.9242C115.223 18.9992 115.007 19.9444 114.574 20.7598C114.142 21.5707 113.52 22.2039 112.709 22.6594C111.898 23.1104 110.923 23.3359 109.784 23.3359ZM109.812 20.548C110.131 20.548 110.406 20.441 110.638 20.2269C110.871 20.0128 111.051 19.7076 111.178 19.3113C111.306 18.9149 111.37 18.4435 111.37 17.8968C111.37 17.3456 111.306 16.8742 111.178 16.4824C111.051 16.0861 110.871 15.7809 110.638 15.5668C110.406 15.3527 110.131 15.2457 109.812 15.2457C109.475 15.2457 109.185 15.3527 108.944 15.5668C108.702 15.7809 108.518 16.0861 108.39 16.4824C108.263 16.8742 108.199 17.3456 108.199 17.8968C108.199 18.4435 108.263 18.9149 108.39 19.3113C108.518 19.7076 108.702 20.0128 108.944 20.2269C109.185 20.441 109.475 20.548 109.812 20.548ZM116.754 23.1445V12.6491H120.416V14.6444H120.526C120.717 13.9064 121.02 13.3666 121.435 13.0249C121.854 12.6833 122.343 12.5125 122.904 12.5125C123.068 12.5125 123.229 12.5261 123.389 12.5535C123.553 12.5763 123.71 12.6104 123.86 12.656V15.8743C123.673 15.8105 123.443 15.7627 123.17 15.7308C122.897 15.6989 122.662 15.683 122.466 15.683C122.097 15.683 121.765 15.7672 121.469 15.9358C121.177 16.0998 120.947 16.3321 120.779 16.6327C120.61 16.9288 120.526 17.2773 120.526 17.6782V23.1445H116.754ZM129.552 27.299C128.5 27.299 127.598 27.1486 126.846 26.848C126.099 26.5519 125.518 26.1419 125.104 25.6181C124.694 25.0988 124.464 24.502 124.414 23.8278H128.049C128.085 24.051 128.176 24.231 128.322 24.3676C128.468 24.5043 128.655 24.6022 128.882 24.6614C129.115 24.7252 129.374 24.7571 129.661 24.7571C130.149 24.7571 130.552 24.6387 130.871 24.4018C131.194 24.1649 131.356 23.7367 131.356 23.1172V21.3406H131.247C131.11 21.6959 130.9 21.9989 130.618 22.2494C130.336 22.4954 129.996 22.6844 129.6 22.8166C129.204 22.9441 128.769 23.0079 128.295 23.0079C127.548 23.0079 126.86 22.8348 126.231 22.4886C125.607 22.1424 125.106 21.5935 124.728 20.8418C124.354 20.0902 124.168 19.1085 124.168 17.8968C124.168 16.6305 124.364 15.601 124.755 14.8083C125.152 14.0157 125.662 13.4349 126.286 13.0659C126.915 12.697 127.575 12.5125 128.267 12.5125C128.787 12.5125 129.242 12.6036 129.634 12.7858C130.026 12.9635 130.354 13.2026 130.618 13.5033C130.882 13.7993 131.083 14.1251 131.219 14.4804H131.301V12.6491H135.073V23.1172C135.073 24.0055 134.843 24.7594 134.383 25.3789C133.927 26.003 133.285 26.479 132.456 26.807C131.627 27.135 130.659 27.299 129.552 27.299ZM129.689 20.3294C130.035 20.3294 130.331 20.2337 130.577 20.0424C130.828 19.8465 131.019 19.5686 131.151 19.2088C131.288 18.8443 131.356 18.407 131.356 17.8968C131.356 17.3775 131.288 16.9334 131.151 16.5644C131.019 16.1909 130.828 15.9062 130.577 15.7103C130.331 15.5099 130.035 15.4096 129.689 15.4096C129.343 15.4096 129.046 15.5099 128.8 15.7103C128.559 15.9062 128.372 16.1909 128.24 16.5644C128.113 16.9334 128.049 17.3775 128.049 17.8968C128.049 18.4161 128.113 18.858 128.24 19.2224C128.372 19.5823 128.559 19.8579 128.8 20.0492C129.046 20.236 129.343 20.3294 129.689 20.3294ZM142.02 23.3359C140.9 23.3359 139.934 23.1218 139.123 22.6936C138.317 22.2608 137.695 21.6413 137.258 20.835C136.825 20.0242 136.609 19.0539 136.609 17.9242C136.609 16.84 136.827 15.8925 137.265 15.0817C137.702 14.2708 138.319 13.6399 139.116 13.1889C139.914 12.738 140.854 12.5125 141.938 12.5125C142.731 12.5125 143.449 12.6355 144.091 12.8815C144.733 13.1274 145.282 13.485 145.738 13.9542C146.193 14.4189 146.544 14.9837 146.79 15.6488C147.036 16.3139 147.159 17.0632 147.159 17.8968V18.7715H137.784V16.6942H143.688C143.683 16.3936 143.606 16.1294 143.455 15.9016C143.31 15.6693 143.111 15.4894 142.861 15.3618C142.615 15.2297 142.335 15.1637 142.02 15.1637C141.715 15.1637 141.435 15.2297 141.18 15.3618C140.925 15.4894 140.72 15.667 140.565 15.8948C140.415 16.1225 140.335 16.389 140.326 16.6942V18.9354C140.326 19.2725 140.397 19.5732 140.538 19.8374C140.679 20.1016 140.882 20.3089 141.146 20.4592C141.41 20.6095 141.729 20.6847 142.102 20.6847C142.362 20.6847 142.599 20.6482 142.813 20.5753C143.032 20.5025 143.219 20.3977 143.373 20.261C143.528 20.1198 143.642 19.9513 143.715 19.7554H147.159C147.04 20.4842 146.76 21.1174 146.318 21.655C145.877 22.1879 145.291 22.6025 144.562 22.8985C143.838 23.1901 142.991 23.3359 142.02 23.3359Z" fill="black"/>
</svg>
